<svg width="19" height="16" viewBox="0 0 19 16" fill="none" xmlns="http://www.w3.org/2000/svg">
<path fill-rule="evenodd" clip-rule="evenodd" d="M0.141911 7.12299L3.42394 0.0785827C3.43469 0.0548569 3.45192 0.0348142 3.47356 0.0208724C3.4952 0.00693057 3.52033 -0.000314728 3.54591 1.04866e-05H14.7114C14.7369 -5.80344e-05 14.7618 0.0073661 14.7832 0.0213956C14.8047 0.0354251 14.8217 0.0554665 14.8323 0.0791246L18.1143 7.12353C18.1268 7.14974 18.1308 7.17933 18.1256 7.208C18.1205 7.23666 18.1065 7.26289 18.0857 7.28285L9.22172 15.9616C9.19655 15.9862 9.16301 16 9.12813 16C9.09324 16 9.0597 15.9862 9.03453 15.9616L0.170547 7.2823C0.149761 7.26235 0.135769 7.23612 0.130617 7.20746C0.125464 7.17879 0.129422 7.14919 0.141911 7.12299ZM9.14113 7.87132C9.87454 7.87132 10.2033 7.85127 10.267 7.84639L10.2648 7.84585C12.5149 7.74398 14.1933 7.34299 14.1933 6.86397C14.1933 6.38495 12.5144 5.98396 10.2648 5.88154V7.44757C10.2017 7.45353 9.8512 7.48333 9.15121 7.48333C8.56788 7.48333 8.14576 7.45786 7.99833 7.44703V5.88046C5.74403 5.98342 4.06138 6.38386 4.06138 6.86397C4.06138 7.34407 5.74403 7.74506 7.99833 7.84639C8.14364 7.85344 8.5578 7.87132 9.14113 7.87132ZM10.267 5.71901V5.71952L10.2664 5.71898C10.2666 5.71899 10.2668 5.719 10.267 5.71901ZM10.267 4.31769V5.71901C12.8137 5.83935 14.7273 6.35519 14.7273 6.97343C14.7273 7.59171 12.8119 8.10758 10.2664 8.22733V12.7211H7.9978V8.22896C5.44653 8.10866 3.5279 7.59279 3.5279 6.97397C3.5279 6.35514 5.44653 5.83874 7.9978 5.71898V4.31769H4.85895V2.17998H13.4063V4.31769H10.267Z" fill="#50AF95"/>
</svg>
