<svg width="26" height="27" viewBox="0 0 26 27" xmlns="http://www.w3.org/2000/svg">
<path d="M12.9603 24.2H16.4862V17.375H19.4344L19.8797 13.825H16.4862V11.55C16.4862 10.525 16.7629 9.825 18.1829 9.825H20V6.6375C19.6871 6.6 18.6161 6.5 17.3646 6.5C14.7413 6.5 12.9603 8.1625 12.9603 11.2V13.825H10V17.375H12.9603V24.2Z" />
<path fill-rule="evenodd" clip-rule="evenodd" d="M23.7 19.5V7.5C23.7 4.90426 21.5957 2.8 19 2.8H7C4.40426 2.8 2.3 4.90426 2.3 7.5V19.5C2.3 22.0957 4.40426 24.2 7 24.2H19C21.5957 24.2 23.7 22.0957 23.7 19.5ZM26 7.5V19.5C26 23.366 22.866 26.5 19 26.5H7C3.13401 26.5 0 23.366 0 19.5V7.5C0 3.63401 3.13401 0.5 7 0.5H19C22.866 0.5 26 3.63401 26 7.5Z" />
</svg>
