<svg width="26" height="27" viewBox="0 0 26 27" xmlns="http://www.w3.org/2000/svg">
<path fill-rule="evenodd" clip-rule="evenodd" d="M13.001 0.5C9.47018 0.5 9.02818 0.5156 7.64108 0.578C6.25788 0.6417 5.31278 0.8614 4.48598 1.1825C3.61821 1.5086 2.83206 2.02013 2.18238 2.6814C1.52114 3.33111 1.00961 4.11725 0.683477 4.985C0.362377 5.8118 0.142676 6.7569 0.0789765 8.1401C0.0152765 9.5272 0.000976562 9.9692 0.000976562 13.5C0.000976562 17.0308 0.0152765 17.4728 0.0789765 18.8599C0.142676 20.2431 0.362377 21.1882 0.683477 22.015C1.00965 22.8827 1.52117 23.6689 2.18238 24.3186C2.83211 24.9798 3.61825 25.4913 4.48598 25.8175C5.31278 26.1386 6.25788 26.3583 7.64108 26.422C9.02818 26.4844 9.47018 26.5 13.001 26.5C16.5318 26.5 16.9738 26.4844 18.3609 26.422C19.7441 26.3583 20.6892 26.1386 21.516 25.8175C22.3837 25.4914 23.1699 24.9798 23.8196 24.3186C24.4808 23.6689 24.9923 22.8827 25.3185 22.015C25.6396 21.1882 25.8593 20.2431 25.923 18.8599C25.9854 17.4728 26.001 17.0308 26.001 13.5C26.001 9.9692 25.9854 9.5272 25.923 8.1401C25.8593 6.7569 25.6396 5.8118 25.3185 4.985C24.9923 4.11725 24.4808 3.33111 23.8196 2.6814C23.1699 2.02013 22.3837 1.5086 21.516 1.1825C20.6892 0.8614 19.7441 0.6417 18.3609 0.578C16.9738 0.5156 16.5318 0.5 13.001 0.5ZM13.001 2.8426C16.472 2.8426 16.8828 2.8556 18.253 2.918C19.5218 2.9765 20.2095 3.1871 20.6684 3.3652C21.2742 3.6018 21.7084 3.8839 22.1634 4.3376C22.6184 4.7926 22.8992 5.2268 23.1358 5.8326C23.3126 6.2915 23.5258 6.9792 23.583 8.2467C23.6454 9.6182 23.6584 10.0277 23.6584 13.5C23.6584 16.971 23.6454 17.3818 23.583 18.752C23.5245 20.0208 23.3126 20.7085 23.1358 21.1674C22.9274 21.7321 22.5951 22.2429 22.1634 22.6624C21.7084 23.1174 21.2742 23.3982 20.6684 23.6348C20.2095 23.8116 19.5218 24.0248 18.2543 24.082C16.8841 24.1444 16.4733 24.1574 13.001 24.1574C9.52998 24.1574 9.11788 24.1444 7.74898 24.082C6.48018 24.0235 5.79248 23.8116 5.33358 23.6348C4.76884 23.4265 4.25798 23.0942 3.83858 22.6624C3.40679 22.243 3.07451 21.7321 2.86618 21.1674C2.68808 20.7085 2.47618 20.0208 2.41898 18.7533C2.35658 17.3818 2.34358 16.9723 2.34358 13.5C2.34358 10.029 2.35658 9.6182 2.41898 8.248C2.47748 6.9792 2.68808 6.2915 2.86618 5.8326C3.10278 5.2268 3.38488 4.7926 3.83858 4.3376C4.29358 3.8826 4.72778 3.6018 5.33358 3.3652C5.79248 3.1871 6.48018 2.9752 7.74768 2.918C9.11918 2.8556 9.52868 2.8426 13.001 2.8426ZM13.001 17.8329C11.8518 17.8329 10.7497 17.3764 9.93715 16.5638C9.12458 15.7512 8.66808 14.6492 8.66808 13.5C8.66808 12.3508 9.12458 11.2488 9.93715 10.4362C10.7497 9.6236 11.8518 9.1671 13.001 9.1671C14.1501 9.1671 15.2522 9.6236 16.0648 10.4362C16.8774 11.2488 17.3339 12.3508 17.3339 13.5C17.3339 14.6492 16.8774 15.7512 16.0648 16.5638C15.2522 17.3764 14.1501 17.8329 13.001 17.8329ZM13.001 6.8245C12.1243 6.8245 11.2563 6.99717 10.4464 7.33264C9.63646 7.66812 8.90056 8.15983 8.28068 8.77971C7.66081 9.39959 7.16909 10.1355 6.83362 10.9454C6.49814 11.7553 6.32548 12.6234 6.32548 13.5C6.32548 14.3766 6.49814 15.2447 6.83362 16.0546C7.16909 16.8645 7.66081 17.6004 8.28068 18.2203C8.90056 18.8402 9.63646 19.3319 10.4464 19.6674C11.2563 20.0028 12.1243 20.1755 13.001 20.1755C14.7714 20.1755 16.4694 19.4722 17.7213 18.2203C18.9732 16.9684 19.6765 15.2705 19.6765 13.5C19.6765 11.7295 18.9732 10.0316 17.7213 8.77971C16.4694 7.52781 14.7714 6.8245 13.001 6.8245ZM21.5004 6.5606C21.5004 6.76546 21.46 6.96832 21.3816 7.15759C21.3032 7.34685 21.1883 7.51883 21.0435 7.66369C20.8986 7.80855 20.7266 7.92345 20.5374 8.00185C20.3481 8.08025 20.1452 8.1206 19.9404 8.1206C19.7355 8.1206 19.5327 8.08025 19.3434 8.00185C19.1541 7.92345 18.9821 7.80855 18.8373 7.66369C18.6924 7.51883 18.5775 7.34685 18.4991 7.15759C18.4207 6.96832 18.3804 6.76546 18.3804 6.5606C18.3804 6.14686 18.5447 5.75007 18.8373 5.45751C19.1298 5.16496 19.5266 5.0006 19.9404 5.0006C20.3541 5.0006 20.7509 5.16496 21.0435 5.45751C21.336 5.75007 21.5004 6.14686 21.5004 6.5606Z" />
</svg>
