<svg width="26" height="27" viewBox="0 0 26 27" fill="none" xmlns="http://www.w3.org/2000/svg">
<path fill-rule="evenodd" clip-rule="evenodd" d="M7 2.8H19C21.5957 2.8 23.7 4.90426 23.7 7.5V19.5C23.7 22.0957 21.5957 24.2 19 24.2H7C4.40426 24.2 2.3 22.0957 2.3 19.5V7.5C2.3 4.90426 4.40426 2.8 7 2.8ZM19 0.5H7C3.13401 0.5 0 3.63401 0 7.5V19.5C0 23.366 3.13401 26.5 7 26.5H19C22.866 26.5 26 23.366 26 19.5V7.5C26 3.63401 22.866 0.5 19 0.5ZM9.17811 10.7696V19.625H6.17706V10.7696H9.17811ZM9.3759 8.03005C9.3759 8.87981 8.72449 9.5598 7.67797 9.5598H7.67788H7.65838C6.65125 9.5598 6 8.87985 6 8.03005C6 7.16113 6.67129 6.5 7.69783 6.5C8.72453 6.5 9.3564 7.16112 9.3759 8.03005ZM13.8402 19.625H10.8392L10.8392 19.6248C10.8392 19.6248 10.8786 11.6003 10.8392 10.7694H13.8403V12.0232C14.2391 11.4199 14.953 10.5617 16.5449 10.5617C18.5194 10.5617 20 11.8273 20 14.5473V19.6249H16.9991V14.8875C16.9991 13.697 16.5647 12.885 15.4787 12.885C14.6497 12.885 14.1559 13.4327 13.939 13.9615C13.8597 14.1506 13.8402 14.415 13.8402 14.6797V19.625Z" fill="#F2F4F7"/>
</svg>
