<svg width="26" height="27" viewBox="0 0 26 27" fill="none" xmlns="http://www.w3.org/2000/svg">
<path d="M7.49347 22.8933C8.2605 22.5553 9.11853 22.4916 9.92196 22.7126C10.923 22.9856 11.9565 23.1234 13.0005 23.1208C18.9612 23.1208 23.4008 18.8476 23.4008 13.1105C23.4008 7.37335 18.9612 3.10009 13.0005 3.10009C7.03976 3.10009 2.60009 7.37335 2.60009 13.1105C2.60009 16.0616 3.76494 18.6643 5.80601 20.4895C6.17686 20.818 6.47675 21.2187 6.68733 21.6672C6.8979 22.1156 7.01473 22.6023 7.03065 23.0974L7.49347 22.8933ZM13.0005 0.5C20.3249 0.5 26.0009 5.86529 26.0009 13.1105C26.0009 20.3556 20.3249 25.7209 13.0005 25.7209C11.7292 25.7242 10.4633 25.5563 9.23684 25.2217C9.00647 25.1584 8.76133 25.1763 8.54261 25.2724L5.96332 26.4112C5.80748 26.4801 5.63711 26.5096 5.46718 26.4972C5.29726 26.4848 5.13298 26.4309 4.9888 26.3401C4.84462 26.2493 4.72494 26.1245 4.6403 25.9767C4.55565 25.8288 4.50863 25.6624 4.50336 25.4921L4.43186 23.178C4.42718 23.0373 4.39387 22.899 4.33396 22.7716C4.27406 22.6442 4.18882 22.5304 4.08345 22.437C1.55356 20.1762 0 16.9027 0 13.1105C0 5.86529 5.67731 0.5 13.0005 0.5ZM5.19369 16.7987L9.01193 10.7405C9.15559 10.5124 9.34498 10.3166 9.56814 10.1654C9.7913 10.0142 10.0434 9.91086 10.3085 9.86199C10.5736 9.81313 10.8459 9.81975 11.1083 9.88145C11.3707 9.94315 11.6175 10.0586 11.833 10.2205L14.8699 12.4955C15.0053 12.5977 15.1703 12.653 15.3399 12.653C15.5095 12.653 15.6745 12.5977 15.8099 12.4955L19.9115 9.38062C20.4588 8.96591 21.1739 9.62113 20.8073 10.2036L16.989 16.2618C16.8454 16.4899 16.656 16.6857 16.4328 16.8369C16.2097 16.9881 15.9576 17.0914 15.6925 17.1403C15.4274 17.1891 15.155 17.1825 14.8926 17.1208C14.6302 17.0591 14.3835 16.9437 14.1679 16.7818L11.131 14.5067C10.9956 14.4045 10.8306 14.3492 10.661 14.3492C10.4914 14.3492 10.3264 14.4045 10.1911 14.5067L6.08942 17.6203C5.5421 18.035 4.82707 17.3798 5.19369 16.7974V16.7987Z" fill="#F2F4F7"/>
</svg>
