<svg width="26" height="27" viewBox="0 0 26 27" fill="none" xmlns="http://www.w3.org/2000/svg">
<path fill-rule="evenodd" clip-rule="evenodd" d="M7 2.8H19C21.5957 2.8 23.7 4.90426 23.7 7.5V19.5C23.7 22.0957 21.5957 24.2 19 24.2H7C4.40426 24.2 2.3 22.0957 2.3 19.5V7.5C2.3 4.90426 4.40426 2.8 7 2.8ZM19 0.5H7C3.13401 0.5 0 3.63401 0 7.5V19.5C0 23.366 3.13401 26.5 7 26.5H19C22.866 26.5 26 23.366 26 19.5V7.5C26 3.63401 22.866 0.5 19 0.5ZM6.65371 12.2717L19.055 7.57581C19.6209 7.32443 20.1679 7.70974 19.9517 8.56072L17.8401 18.3329C17.6925 19.028 17.2665 19.1928 16.6734 18.8721L13.4566 16.5389L11.9101 18.0156C11.9043 18.0211 11.8986 18.0265 11.8929 18.0319C11.7204 18.1958 11.5774 18.3316 11.2659 18.3316L11.4855 15.1089L11.4841 15.1083H11.4855L17.454 9.81899C17.7156 9.59096 17.3973 9.47901 17.049 9.68712L9.68235 14.2511L6.49844 13.2758C5.81227 13.0691 5.80737 12.6055 6.65371 12.2717Z" fill="#F2F4F7"/>
</svg>
