<svg width="26" height="27" viewBox="0 0 26 27" xmlns="http://www.w3.org/2000/svg">
<path fill-rule="evenodd" clip-rule="evenodd" d="M7.00098 2.8H19.001C21.5967 2.8 23.701 4.90426 23.701 7.5V19.5C23.701 22.0957 21.5967 24.2 19.001 24.2H7.00098C4.40524 24.2 2.30098 22.0957 2.30098 19.5V7.5C2.30098 4.90426 4.40524 2.8 7.00098 2.8ZM19.001 0.5H7.00098C3.13498 0.5 0.000976562 3.63401 0.000976562 7.5V19.5C0.000976562 23.366 3.13498 26.5 7.00098 26.5H19.001C22.867 26.5 26.001 23.366 26.001 19.5V7.5C26.001 3.63401 22.867 0.5 19.001 0.5ZM18.3516 10.302C18.9331 10.2323 19.4861 10.0781 20.001 9.85001L19.9997 9.85186C19.6143 10.4283 19.1293 10.9315 18.5674 11.3378C18.573 11.4611 18.5761 11.5857 18.5761 11.709C18.5761 15.5046 15.6874 19.8811 10.4033 19.8811C8.84237 19.8828 7.31396 19.4348 6.00098 18.5906C6.22854 18.6174 6.45748 18.6307 6.68661 18.6307C7.98012 18.6326 9.23667 18.1993 10.2541 17.4006C9.65476 17.3896 9.07384 17.1915 8.59268 16.8339C8.11152 16.4764 7.75421 15.9773 7.57078 15.4066C8.00136 15.4886 8.44495 15.4718 8.86806 15.3573C8.21792 15.2259 7.63326 14.8736 7.21328 14.3603C6.7933 13.8469 6.56387 13.204 6.56391 12.5407V12.5038C6.96276 12.7255 7.40879 12.8487 7.86489 12.8632C7.47161 12.6006 7.14924 12.2449 6.92638 11.8278C6.70352 11.4107 6.58707 10.945 6.58734 10.4721C6.58734 9.94681 6.72915 9.45355 6.97578 9.02811C7.69708 9.91546 8.5969 10.6412 9.61685 11.1583C10.6368 11.6754 11.7541 11.9723 12.8962 12.0296C12.7516 11.4135 12.8145 10.7669 13.0751 10.1902C13.3356 9.61346 13.7793 9.13892 14.3372 8.84021C14.8952 8.5415 15.5361 8.43535 16.1605 8.53822C16.7849 8.6411 17.3579 8.94726 17.7905 9.40915C18.4339 9.28288 19.0507 9.04722 19.6144 8.71242C19.4004 9.378 18.9516 9.94298 18.3516 10.302Z"/>
</svg>
