<?xml version="1.0" encoding="utf-8"?><svg viewBox="0 0 26 27" xmlns="http://www.w3.org/2000/svg" xmlns:xlink="http://www.w3.org/1999/xlink"><style>:root>svg{display:none}:root>svg:target{display:block}</style><svg fill="none" viewBox="0 0 18 18" id="bitcoin" xmlns="http://www.w3.org/2000/svg"><path d="M8.17 11.483c.8.213 2.58.688 2.858-.44.29-1.148-1.41-1.532-2.247-1.721l-.25-.058-.54 2.172.18.047z" fill="url(#apaint0_linear_434_16845)"/><path d="M8.943 8.307c.668.18 2.136.577 2.394-.45.259-1.04-1.156-1.357-1.852-1.512a8.284 8.284 0 01-.208-.049l-.492 1.97c.045.01.098.025.158.04z" fill="url(#apaint1_linear_434_16845)"/><path fill-rule="evenodd" clip-rule="evenodd" d="M6.824 17.73c4.817 1.203 9.704-1.73 10.907-6.553C18.933 6.352 15.994 1.465 11.177.27A8.995 8.995 0 00.27 6.824C-.933 11.64 2 16.528 6.824 17.73zm4.478-12.123c1.252.43 2.159 1.076 1.983 2.271-.127.872-.612 1.301-1.266 1.449.886.464 1.336 1.174.907 2.398-.527 1.525-1.793 1.652-3.48 1.335L9.038 14.7l-.984-.246.4-1.618c-.253-.063-.52-.133-.787-.204l-.408 1.625-.984-.246.408-1.639c-.133-.036-.266-.07-.4-.104-.1-.026-.201-.051-.303-.079l-1.287-.323.492-1.132s.724.19.717.176c.274.07.401-.113.45-.232L7 8.089c.035.014.07.021.106.028-.038-.018-.07-.026-.095-.032L7 8.082l.463-1.849c.014-.21-.056-.478-.457-.576.014-.008-.717-.176-.717-.176l.26-1.055 1.364.338v.007c.204.049.415.098.633.147l.4-1.617.985.246-.394 1.59c.268.055.535.119.795.182l.394-1.582.984.246-.408 1.624z" fill="url(#apaint2_linear_434_16845)"/><defs><linearGradient id="apaint0_linear_434_16845" x1="8.995" y1="-.004" x2="8.995" y2="17.998" gradientUnits="userSpaceOnUse"><stop stop-color="#F9AA4B"/><stop offset="1" stop-color="#F7931A"/></linearGradient><linearGradient id="apaint1_linear_434_16845" x1="8.995" y1="-.004" x2="8.995" y2="17.998" gradientUnits="userSpaceOnUse"><stop stop-color="#F9AA4B"/><stop offset="1" stop-color="#F7931A"/></linearGradient><linearGradient id="apaint2_linear_434_16845" x1="8.995" y1="-.004" x2="8.995" y2="17.998" gradientUnits="userSpaceOnUse"><stop stop-color="#F9AA4B"/><stop offset="1" stop-color="#F7931A"/></linearGradient></defs></svg><svg fill="none" viewBox="0 0 18 18" id="bitcoin1" xmlns="http://www.w3.org/2000/svg"><path d="M8.17 11.483c.8.213 2.58.688 2.858-.44.29-1.148-1.41-1.532-2.247-1.721l-.25-.058-.54 2.172.18.047z" fill="url(#bpaint0_linear_434_16845)"/><path d="M8.943 8.307c.668.18 2.136.577 2.394-.45.259-1.04-1.156-1.357-1.852-1.512a8.284 8.284 0 01-.208-.049l-.492 1.97c.045.01.098.025.158.04z" fill="url(#bpaint1_linear_434_16845)"/><path fill-rule="evenodd" clip-rule="evenodd" d="M6.824 17.73c4.817 1.203 9.704-1.73 10.907-6.553C18.933 6.352 15.994 1.465 11.177.27A8.995 8.995 0 00.27 6.824C-.933 11.64 2 16.528 6.824 17.73zm4.478-12.123c1.252.43 2.159 1.076 1.983 2.271-.127.872-.612 1.301-1.266 1.449.886.464 1.336 1.174.907 2.398-.527 1.525-1.793 1.652-3.48 1.335L9.038 14.7l-.984-.246.4-1.618c-.253-.063-.52-.133-.787-.204l-.408 1.625-.984-.246.408-1.639c-.133-.036-.266-.07-.4-.104-.1-.026-.201-.051-.303-.079l-1.287-.323.492-1.132s.724.19.717.176c.274.07.401-.113.45-.232L7 8.089c.035.014.07.021.106.028-.038-.018-.07-.026-.095-.032L7 8.082l.463-1.849c.014-.21-.056-.478-.457-.576.014-.008-.717-.176-.717-.176l.26-1.055 1.364.338v.007c.204.049.415.098.633.147l.4-1.617.985.246-.394 1.59c.268.055.535.119.795.182l.394-1.582.984.246-.408 1.624z" fill="url(#bpaint2_linear_434_16845)"/><defs><linearGradient id="bpaint0_linear_434_16845" x1="8.995" y1="-.004" x2="8.995" y2="17.998" gradientUnits="userSpaceOnUse"><stop stop-color="#F9AA4B"/><stop offset="1" stop-color="#F7931A"/></linearGradient><linearGradient id="bpaint1_linear_434_16845" x1="8.995" y1="-.004" x2="8.995" y2="17.998" gradientUnits="userSpaceOnUse"><stop stop-color="#F9AA4B"/><stop offset="1" stop-color="#F7931A"/></linearGradient><linearGradient id="bpaint2_linear_434_16845" x1="8.995" y1="-.004" x2="8.995" y2="17.998" gradientUnits="userSpaceOnUse"><stop stop-color="#F9AA4B"/><stop offset="1" stop-color="#F7931A"/></linearGradient></defs></svg><svg fill="none" viewBox="0 0 19 16" id="cur-t" xmlns="http://www.w3.org/2000/svg"><path fill-rule="evenodd" clip-rule="evenodd" d="M.142 7.123L3.424.079A.13.13 0 013.546 0H14.71a.134.134 0 01.12.08l3.283 7.044a.139.139 0 01-.028.159l-8.864 8.679a.134.134 0 01-.187 0L.17 7.282a.137.137 0 01-.03-.159zm9 .748c.733 0 1.061-.02 1.125-.025h-.002c2.25-.102 3.928-.503 3.928-.982s-1.679-.88-3.928-.982v1.566c-.063.006-.414.035-1.114.035-.583 0-1.005-.025-1.153-.036V5.88c-2.254.103-3.937.504-3.937.984s1.683.881 3.937.982c.146.007.56.025 1.143.025zm1.125-2.152zm0-1.401v1.401c2.547.12 4.46.636 4.46 1.254 0 .619-1.915 1.135-4.46 1.254v4.494h-2.27V8.23c-2.55-.12-4.47-.636-4.47-1.255 0-.619 1.92-1.135 4.47-1.255V4.318H4.86V2.18h8.547v2.138h-3.139z" fill="#50AF95"/></svg><svg fill="none" viewBox="0 0 12 18" id="ethereum" xmlns="http://www.w3.org/2000/svg"><path d="M5.998 0l-.124.41v11.902l.124.12 5.683-3.265L5.998 0z" fill="#343434"/><path d="M6 0L.318 9.167 6 12.433V0z" fill="#8C8C8C"/><path d="M5.998 13.479l-.07.083v4.24l.07.198 5.686-7.785-5.686 3.264z" fill="#3C3C3B"/><path d="M5.998 18V13.48L.316 10.215 5.998 18z" fill="#8C8C8C"/><path d="M5.998 12.433l5.682-3.266-5.682-2.511v5.777z" fill="#141414"/><path d="M.316 9.167l5.682 3.266V6.656L.316 9.167z" fill="#393939"/></svg><svg fill="none" viewBox="0 0 26 27" id="facebook" xmlns="http://www.w3.org/2000/svg"><path d="M12.96 24.2h3.526v-6.825h2.948l.446-3.55h-3.394V11.55c0-1.025.277-1.725 1.697-1.725H20V6.638a25.002 25.002 0 00-2.635-.138c-2.624 0-4.405 1.662-4.405 4.7v2.625H10v3.55h2.96V24.2z" fill="#F2F4F7"/><path fill-rule="evenodd" clip-rule="evenodd" d="M23.7 19.5v-12A4.7 4.7 0 0019 2.8H7a4.7 4.7 0 00-4.7 4.7v12A4.7 4.7 0 007 24.2h12a4.7 4.7 0 004.7-4.7zm2.3-12v12a7 7 0 01-7 7H7a7 7 0 01-7-7v-12a7 7 0 017-7h12a7 7 0 017 7z" fill="#F2F4F7"/></svg><svg fill="none" viewBox="0 0 24 24" id="hesh" xmlns="http://www.w3.org/2000/svg"><path fill-rule="evenodd" clip-rule="evenodd" d="M4 6.25a.75.75 0 00-.75.75v14c0 .414.336.75.75.75h12a.75.75 0 00.75-.75V7a.75.75 0 00-.75-.75H4zm.75 14V7.75h10.5v12.5H4.75zm2.25-8a.75.75 0 01.75-.75h4.5a.75.75 0 010 1.5h-4.5a.75.75 0 01-.75-.75zm0 3.5a.75.75 0 01.75-.75h4.5a.75.75 0 010 1.5h-4.5a.75.75 0 01-.75-.75z" fill="#222837"/><path fill-rule="evenodd" clip-rule="evenodd" d="M8 2.25a.75.75 0 00-.75.75v3.25h1.5v-2.5h10.5v12.5h-2.5v1.5H20a.75.75 0 00.75-.75V3a.75.75 0 00-.75-.75H8z" fill="#222837"/></svg><svg fill="none" viewBox="0 0 26 27" id="instagram" xmlns="http://www.w3.org/2000/svg"><path fill-rule="evenodd" clip-rule="evenodd" d="M13.001.5c-3.53 0-3.973.016-5.36.078-1.383.064-2.328.283-3.155.605A6.371 6.371 0 002.182 2.68 6.373 6.373 0 00.683 4.985C.363 5.812.143 6.757.08 8.14.015 9.527.001 9.97.001 13.5c0 3.53.014 3.973.078 5.36.064 1.383.283 2.328.604 3.155a6.374 6.374 0 001.5 2.304 6.374 6.374 0 002.303 1.498c.827.322 1.772.541 3.155.605 1.387.062 1.83.078 5.36.078 3.53 0 3.973-.016 5.36-.078 1.383-.064 2.328-.283 3.155-.605a6.373 6.373 0 002.304-1.498 6.374 6.374 0 001.498-2.304c.322-.827.541-1.772.605-3.155.062-1.387.078-1.83.078-5.36 0-3.53-.016-3.973-.078-5.36-.064-1.383-.283-2.328-.604-3.155a6.374 6.374 0 00-1.5-2.304 6.372 6.372 0 00-2.303-1.498C20.689.86 19.744.642 18.361.578 16.974.516 16.53.5 13 .5zm0 2.343c3.471 0 3.882.013 5.252.075 1.269.058 1.956.27 2.415.447.606.237 1.04.519 1.495.973.455.455.736.889.973 1.495.177.458.39 1.146.447 2.414.062 1.371.075 1.78.075 5.253 0 3.471-.013 3.882-.075 5.252-.058 1.269-.27 1.957-.447 2.415a4.03 4.03 0 01-.973 1.495c-.455.455-.889.736-1.495.973-.459.177-1.146.39-2.414.447-1.37.062-1.78.075-5.253.075-3.471 0-3.883-.013-5.252-.075-1.269-.059-1.957-.27-2.415-.447a4.027 4.027 0 01-1.495-.973 4.028 4.028 0 01-.973-1.495c-.178-.459-.39-1.146-.447-2.414-.062-1.371-.075-1.78-.075-5.253 0-3.471.013-3.882.075-5.252.058-1.269.27-1.956.447-2.415.237-.606.519-1.04.973-1.495.455-.455.889-.736 1.495-.973.458-.178 1.146-.39 2.414-.447 1.371-.062 1.78-.075 5.253-.075zm0 14.99a4.333 4.333 0 110-8.666 4.333 4.333 0 010 8.666zm0-11.008a6.675 6.675 0 100 13.35 6.675 6.675 0 000-13.35zm8.5-.264a1.56 1.56 0 11-3.12 0 1.56 1.56 0 013.12 0z" fill="#F2F4F7"/></svg><svg fill="none" viewBox="0 0 26 27" id="linkedin" xmlns="http://www.w3.org/2000/svg"><path fill-rule="evenodd" clip-rule="evenodd" d="M7 2.8h12a4.7 4.7 0 014.7 4.7v12a4.7 4.7 0 01-4.7 4.7H7a4.7 4.7 0 01-4.7-4.7v-12A4.7 4.7 0 017 2.8zM19 .5H7a7 7 0 00-7 7v12a7 7 0 007 7h12a7 7 0 007-7v-12a7 7 0 00-7-7zM9.178 10.77v8.855h-3V10.77h3zm.198-2.74c0 .85-.652 1.53-1.698 1.53h-.02C6.651 9.56 6 8.88 6 8.03c0-.869.671-1.53 1.698-1.53s1.658.661 1.678 1.53zm4.464 11.595h-3s.039-8.025 0-8.856h3v1.254c.4-.603 1.113-1.461 2.705-1.461 1.974 0 3.455 1.265 3.455 3.985v5.078h-3v-4.738c0-1.19-.435-2.002-1.521-2.002-.83 0-1.323.548-1.54 1.076-.08.19-.099.454-.099.719v4.945z" fill="#F2F4F7"/></svg><svg fill="none" viewBox="0 0 18 18" id="litecoin" xmlns="http://www.w3.org/2000/svg"><path d="M9 0a9 9 0 100 18A9 9 0 009 0zm-.197 2.759h1.938a.257.257 0 01.248.326L9.466 8.273l1.43-.436-.307 1.039-1.443.42-.936 3.16h5.007a.258.258 0 01.246.328l-.436 1.5a.344.344 0 01-.33.247H5.05l1.292-4.366-1.43.435.316-1.021 1.432-.435 1.816-6.135a.342.342 0 01.328-.25z" fill="#CACEDC"/></svg><svg fill="none" viewBox="0 0 26 27" id="messenger" xmlns="http://www.w3.org/2000/svg"><path d="M7.493 22.893a3.634 3.634 0 012.429-.18 11.58 11.58 0 003.079.408c5.96 0 10.4-4.273 10.4-10.01C23.4 7.372 18.96 3.1 13 3.1 7.04 3.1 2.6 7.372 2.6 13.11c0 2.95 1.164 5.553 3.205 7.378a3.64 3.64 0 011.225 2.608l.462-.204zM13.001.5c7.324 0 13 5.365 13 12.61 0 7.246-5.676 12.61-13 12.61a14.16 14.16 0 01-3.764-.498 1.04 1.04 0 00-.694.05l-2.58 1.14a1.04 1.04 0 01-1.46-.92l-.071-2.314a1.036 1.036 0 00-.349-.741C1.553 20.177 0 16.903 0 13.11 0 5.865 5.677.5 13 .5zM5.194 16.799l3.818-6.058a1.95 1.95 0 012.821-.52l3.037 2.274a.78.78 0 00.94 0l4.101-3.114c.548-.415 1.263.24.896.823l-3.818 6.058a1.949 1.949 0 01-2.821.52l-3.037-2.275a.78.78 0 00-.94 0L6.09 17.62c-.547.415-1.262-.24-.895-.823v.002z" fill="#F2F4F7"/></svg><svg fill="none" viewBox="0 0 17 17" id="search" xmlns="http://www.w3.org/2000/svg"><path d="M6.828 13.062a6.382 6.382 0 003.71-1.195l3.935 3.934a.941.941 0 00.672.274c.54 0 .93-.415.93-.946a.914.914 0 00-.266-.664l-3.91-3.918a6.358 6.358 0 001.312-3.869c0-3.51-2.872-6.383-6.383-6.383C3.308.295.445 3.167.445 6.678c0 3.512 2.863 6.384 6.383 6.384zm0-1.378c-2.748 0-5.005-2.266-5.005-5.006 0-2.739 2.257-5.005 5.005-5.005 2.74 0 5.005 2.266 5.005 5.005 0 2.74-2.266 5.006-5.005 5.006z" fill="#B2B8CC"/></svg><svg fill="none" viewBox="0 0 20 19" id="sun" xmlns="http://www.w3.org/2000/svg"><path d="M10 14.188a4.688 4.688 0 110-9.376 4.688 4.688 0 010 9.375zM10 .124a.938.938 0 01.938.938v1.875a.938.938 0 01-1.876 0V1.062A.937.937 0 0110 .125zm0 15a.938.938 0 01.938.938v1.875a.938.938 0 01-1.876 0v-1.875a.937.937 0 01.938-.938zM1.562 8.562h1.875a.937.937 0 110 1.876H1.563a.938.938 0 010-1.876zm15 0h1.875a.937.937 0 010 1.876h-1.875a.938.938 0 010-1.876zm.067-5.691a.938.938 0 010 1.326l-1.326 1.325a.936.936 0 11-1.325-1.325l1.325-1.326a.938.938 0 011.326 0zM6.022 13.478a.937.937 0 010 1.325L4.697 16.13a.94.94 0 01-1.542-.296.937.937 0 01.216-1.03l1.326-1.325a.938.938 0 011.325 0zM4.697 2.87l1.325 1.326a.938.938 0 01-1.325 1.325L3.372 4.197A.938.938 0 014.697 2.87zm10.606 10.607l1.326 1.325a.938.938 0 01-1.326 1.326l-1.325-1.326a.938.938 0 111.325-1.325z" fill="#F2F4F7"/></svg><svg fill="none" viewBox="0 0 26 27" id="telegram" xmlns="http://www.w3.org/2000/svg"><path fill-rule="evenodd" clip-rule="evenodd" d="M7 2.8h12a4.7 4.7 0 014.7 4.7v12a4.7 4.7 0 01-4.7 4.7H7a4.7 4.7 0 01-4.7-4.7v-12A4.7 4.7 0 017 2.8zM19 .5H7a7 7 0 00-7 7v12a7 7 0 007 7h12a7 7 0 007-7v-12a7 7 0 00-7-7zM6.654 12.272l12.401-4.696c.566-.252 1.113.134.897.985l-2.112 9.772c-.148.695-.573.86-1.167.54l-3.216-2.334-1.547 1.477-.017.016c-.173.164-.316.3-.627.3l.22-3.223h-.002.002l5.968-5.29c.262-.228-.057-.34-.405-.132l-7.367 4.564-3.184-.975c-.686-.207-.69-.67.156-1.004z" fill="#F2F4F7"/></svg><svg fill="none" viewBox="0 0 26 27" id="twitter" xmlns="http://www.w3.org/2000/svg"><path fill-rule="evenodd" clip-rule="evenodd" d="M7.001 2.8h12a4.7 4.7 0 014.7 4.7v12a4.7 4.7 0 01-4.7 4.7h-12a4.7 4.7 0 01-4.7-4.7v-12a4.7 4.7 0 014.7-4.7zm12-2.3h-12a7 7 0 00-7 7v12a7 7 0 007 7h12a7 7 0 007-7v-12a7 7 0 00-7-7zm-.65 9.802a5.754 5.754 0 001.65-.452L20 9.852a5.838 5.838 0 01-1.433 1.486c.006.123.01.248.01.371 0 3.796-2.89 8.172-8.174 8.172a8.124 8.124 0 01-4.402-1.29 5.764 5.764 0 004.253-1.19 2.874 2.874 0 01-2.683-1.994c.43.082.874.065 1.297-.05a2.874 2.874 0 01-2.304-2.816v-.037c.399.222.845.345 1.3.36a2.873 2.873 0 01-.888-3.836 8.157 8.157 0 005.92 3.002 2.873 2.873 0 014.895-2.62 5.734 5.734 0 001.823-.698 2.88 2.88 0 01-1.262 1.59z" fill="#F2F4F7"/></svg><svg fill="none" viewBox="0 0 15 15" id="world" xmlns="http://www.w3.org/2000/svg"><path d="M7.492 0C3.353 0 0 3.36 0 7.5 0 11.64 3.353 15 7.492 15 11.64 15 15 11.64 15 7.5 15 3.36 11.64 0 7.492 0zm5.198 4.5h-2.213a11.736 11.736 0 00-1.034-2.67A6.022 6.022 0 0112.69 4.5zM7.5 1.53c.623.9 1.11 1.898 1.432 2.97H6.067c.323-1.072.81-2.07 1.433-2.97zM1.695 9A6.181 6.181 0 011.5 7.5c0-.517.075-1.02.195-1.5H4.23c-.06.495-.105.99-.105 1.5S4.17 8.505 4.23 9H1.695zm.615 1.5h2.212c.24.938.585 1.838 1.035 2.67A5.99 5.99 0 012.31 10.5zm2.212-6H2.31a5.99 5.99 0 013.248-2.67c-.453.845-.8 1.741-1.035 2.67zM7.5 13.47c-.622-.9-1.11-1.897-1.433-2.97h2.865A10.565 10.565 0 017.5 13.47zM9.255 9h-3.51c-.067-.495-.12-.99-.12-1.5s.053-1.012.12-1.5h3.51c.067.488.12.99.12 1.5s-.053 1.005-.12 1.5zm.188 4.17c.45-.832.795-1.732 1.034-2.67h2.213a6.022 6.022 0 01-3.247 2.67zM10.77 9c.06-.495.105-.99.105-1.5S10.83 6.495 10.77 6h2.535c.12.48.195.983.195 1.5 0 .518-.075 1.02-.195 1.5H10.77z" fill="#F2F4F7"/></svg></svg>